<?xml version="1.0" standalone="no"?>
<!DOCTYPE svg PUBLIC "-//W3C//DTD SVG 20010904//EN"
 "http://www.w3.org/TR/2001/REC-SVG-20010904/DTD/svg10.dtd">
<svg version="1.0" xmlns="http://www.w3.org/2000/svg"
 width="128.000000pt" height="128.000000pt" viewBox="0 0 128.000000 128.000000"
 preserveAspectRatio="xMidYMid meet">
<metadata>
Created by potrace 1.11, written by Peter Selinger 2001-2013
</metadata>
<g transform="translate(0.000000,128.000000) scale(0.100000,-0.100000)"
fill="#000000" stroke="none">
<path d="M0 640 l0 -640 640 0 640 0 0 640 0 640 -640 0 -640 0 0 -640z m835
440 c85 -43 128 -99 152 -195 20 -81 9 -168 -29 -244 -26 -50 -92 -102 -156
-122 -53 -17 -475 -24 -512 -9 -59 24 -61 112 -4 139 16 7 98 11 225 11 216 0
243 5 289 55 22 23 25 36 25 95 0 59 -3 72 -25 95 -45 50 -73 55 -287 55 -213
0 -236 5 -262 51 -12 22 -12 32 -2 56 7 17 22 36 34 42 15 7 100 10 253 8
l231 -2 68 -35z m131 -701 c50 -47 36 -132 -27 -165 -94 -48 -192 68 -128 150
12 15 31 32 43 37 32 13 86 3 112 -22z"/>
</g>
</svg>
